<!-- Generated by IcoMoon.io -->
<svg version="1.1" xmlns="http://www.w3.org/2000/svg" width="1024" height="1024" viewBox="0 0 1024 1024">
<title></title>
<g id="icomoon-ignore">
</g>
<path fill="#000" d="M542.182 648.935c-7.729 7.736-18.41 12.521-30.208 12.521s-22.479-4.785-30.208-12.52l-213.248-213.351c-7.768-7.743-12.574-18.452-12.574-30.285 0-23.614 19.143-42.757 42.757-42.757 11.782 0 22.45 4.765 30.184 12.473l-0.001-0.001 183.091 183.45 183.142-183.45c7.732-7.707 18.401-12.472 30.182-12.472 23.614 0 42.757 19.143 42.757 42.757 0 11.832-4.806 22.542-12.573 30.284l-213.351 213.351z"></path>
</svg>
