<!-- Generated by IcoMoon.io -->
<svg version="1.1" xmlns="http://www.w3.org/2000/svg" width="1024" height="1024" viewBox="0 0 1024 1024">
<title></title>
<g id="icomoon-ignore">
</g>
<path fill="#000" d="M298.666 298.667c0-47.128 38.205-85.333 85.333-85.333v0h153.003c17.664 0.010 33.652 7.174 45.226 18.752l124.374 124.331c11.573 11.58 18.731 27.574 18.731 45.24 0 0.003 0 0.005 0 0.008v0 323.669c0 47.128-38.205 85.333-85.333 85.333v0h-256c-47.128 0-85.333-38.205-85.333-85.333v0-426.667zM383.999 256c-23.564 0-42.667 19.103-42.667 42.667v0 426.667c0 23.564 19.103 42.667 42.667 42.667v0h256c23.564 0 42.667-19.103 42.667-42.667v0-298.667h-106.667c-35.346 0-64-28.654-64-64v0-106.667h-128zM575.999 384h97.835l-119.168-119.168v97.835c0 11.782 9.551 21.333 21.333 21.333v0zM405.332 512c-11.782 0-21.333 9.551-21.333 21.333s9.551 21.333 21.333 21.333v0h213.333c11.782 0 21.333-9.551 21.333-21.333s-9.551-21.333-21.333-21.333v0h-213.333zM383.999 618.667c0-11.782 9.551-21.333 21.333-21.333v0h213.333c11.782 0 21.333 9.551 21.333 21.333s-9.551 21.333-21.333 21.333v0h-213.333c-11.782 0-21.333-9.551-21.333-21.333v0zM405.332 682.667c-11.782 0-21.333 9.551-21.333 21.333s9.551 21.333 21.333 21.333v0h213.333c11.782 0 21.333-9.551 21.333-21.333s-9.551-21.333-21.333-21.333v0h-213.333z"></path>
</svg>
