<!-- Generated by IcoMoon.io -->
<svg version="1.1" xmlns="http://www.w3.org/2000/svg" width="1024" height="1024" viewBox="0 0 1024 1024">
<title></title>
<g id="icomoon-ignore">
</g>
<path fill="#000" d="M236.462 176.598l4.011 3.541 268.501 268.459 268.544-268.459c7.716-7.691 18.362-12.446 30.119-12.446 23.564 0 42.667 19.103 42.667 42.667 0 9.874-3.354 18.964-8.985 26.194l0.072-0.095-3.541 4.011-268.544 268.501 274.56 274.56c7.691 7.716 12.446 18.362 12.446 30.119 0 23.564-19.103 42.667-42.667 42.667-9.874 0-18.964-3.354-26.194-8.985l0.095 0.072-4.011-3.541-274.56-274.56-268.501 268.501c-7.716 7.691-18.362 12.446-30.119 12.446-23.564 0-42.667-19.103-42.667-42.667 0-9.874 3.354-18.964 8.985-26.194l-0.072 0.095 3.541-4.011 268.459-268.544-268.459-268.459c-7.691-7.716-12.446-18.362-12.446-30.119 0-23.564 19.103-42.667 42.667-42.667 9.874 0 18.964 3.354 26.194 8.985l-0.095-0.072z"></path>
</svg>
