<!-- Generated by IcoMoon.io -->
<svg version="1.1" xmlns="http://www.w3.org/2000/svg" width="1024" height="1024" viewBox="0 0 1024 1024">
<title></title>
<g id="icomoon-ignore">
</g>
<path fill="#000" d="M738.304 285.696c57.916 57.916 93.738 137.927 93.738 226.304 0 176.754-143.288 320.042-320.042 320.042-88.377 0-168.388-35.822-226.304-93.738v0c-57.916-57.916-93.738-137.927-93.738-226.304 0-176.754 143.288-320.042 320.042-320.042 88.377 0 168.388 35.822 226.304 93.738v0zM693.043 330.957c-46.333-46.333-110.341-74.991-181.043-74.991-141.404 0-256.034 114.63-256.034 256.034 0 70.702 28.658 134.71 74.991 181.043v0c46.333 46.333 110.341 74.991 181.043 74.991 141.404 0 256.034-114.63 256.034-256.034 0-70.702-28.658-134.71-74.991-181.043v0zM625.152 398.848c5.791 5.791 9.373 13.791 9.373 22.628 0 7.537-2.606 14.465-6.965 19.933l0.050-0.065-2.458 2.765-67.891 67.891 67.891 67.891c5.809 5.794 9.403 13.806 9.403 22.658 0 17.673-14.327 32-32 32-7.551 0-14.491-2.615-19.963-6.989l0.064 0.049-2.765-2.458-67.891-67.891-67.891 67.891c-5.794 5.809-13.806 9.403-22.658 9.403-17.673 0-32-14.327-32-32 0-7.551 2.615-14.491 6.989-19.963l-0.049 0.064 2.458-2.765 67.891-67.891-67.891-67.891c-5.809-5.794-9.403-13.806-9.403-22.658 0-17.673 14.327-32 32-32 7.551 0 14.491 2.615 19.963 6.989l-0.064-0.049 2.765 2.458 67.891 67.891 67.891-67.891c5.791-5.793 13.792-9.376 22.63-9.376s16.839 3.583 22.63 9.375v0z"></path>
</svg>
