<!-- Generated by IcoMoon.io -->
<svg version="1.1" xmlns="http://www.w3.org/2000/svg" width="1024" height="1024" viewBox="0 0 1024 1024">
<title></title>
<g id="icomoon-ignore">
</g>
<path fill="#000" d="M444.785 213.333c-47.128 0-85.333 38.205-85.333 85.333v0 94.165c12.317-3.646 26.826-6.436 41.741-7.824l0.925-0.070v-86.272c0-23.564 19.103-42.667 42.667-42.667v0h128v106.667c0 35.346 28.654 64 64 64v0h106.667v298.667c0 23.564-19.103 42.667-42.667 42.667v0h-96.299c-13.436 16.188-28.582 30.25-45.353 42.176l-0.727 0.491h142.379c47.128 0 85.333-38.205 85.333-85.333v0-323.669c-0.004-17.661-7.161-33.65-18.731-45.227l-124.352-124.373c-11.58-11.573-27.574-18.731-45.24-18.731-0.003 0-0.005 0-0.008 0h-153.002zM734.619 384h-97.835c-11.782 0-21.333-9.551-21.333-21.333v0-97.835l119.168 119.168zM258.523 593.92c37.213-9.732 64.227-43.052 64.227-82.682 0-8.205-1.158-16.139-3.319-23.648l0.148 0.602-6.677-23.765c10.175-7.9 21.692-14.982 33.948-20.751l1.124-0.476 14.4 15.275c15.597 16.521 37.647 26.806 62.1 26.806 24.422 0 46.447-10.259 62.002-26.702l0.037-0.040 13.867-14.656c13.573 6.485 25.262 13.852 35.979 22.389l-0.374-0.288-5.376 18.027c-2.263 7.308-3.567 15.709-3.567 24.414 0 40.159 27.741 73.839 65.106 82.922l0.584 0.12 14.891 3.52c0.891 7.102 1.4 15.32 1.4 23.657 0 6.95-0.353 13.818-1.043 20.586l0.070-0.85-19.648 5.013c-37.213 9.732-64.227 43.052-64.227 82.682 0 8.205 1.158 16.139 3.319 23.648l-0.148-0.602 6.677 23.744c-10.176 7.907-21.692 14.996-33.949 20.772l-1.123 0.476-14.4-15.275c-15.597-16.521-37.647-26.806-62.1-26.806-24.422 0-46.447 10.259-62.002 26.702l-0.037 0.040-13.867 14.677c-13.581-6.484-25.278-13.852-36.002-22.39l0.375 0.288 5.419-18.048c2.263-7.306 3.566-15.706 3.566-24.41 0-40.166-27.751-73.851-65.126-82.927l-0.584-0.12-14.912-3.541c-0.891-7.099-1.399-15.313-1.399-23.646 0-6.946 0.353-13.81 1.043-20.574l-0.070 0.85 19.669-5.013zM466.118 618.667c0-23.564-19.103-42.667-42.667-42.667s-42.667 19.103-42.667 42.667v0c0 23.564 19.103 42.667 42.667 42.667s42.667-19.103 42.667-42.667v0z"></path>
</svg>
