<!-- Generated by IcoMoon.io -->
<svg version="1.1" xmlns="http://www.w3.org/2000/svg" width="1024" height="1024" viewBox="0 0 1024 1024">
<title></title>
<g id="icomoon-ignore">
</g>
<path fill="#7cba10" d="M512 0c-282.624 0-512 229.376-512 512s229.376 512 512 512 512-229.376 512-512-229.376-512-512-512zM373.248 731.648l-183.808-183.808c-9.25-9.232-14.973-21.996-14.973-36.096s5.723-26.864 14.972-36.095l0.001-0.001c19.968-19.968 52.224-19.968 72.192 0l147.968 147.456 352.256-352.256c19.968-19.968 52.224-19.968 72.192 0s19.968 52.224 0 72.192l-388.608 388.608c-19.456 19.968-52.224 19.968-72.192 0z"></path>
</svg>
