<!-- Generated by IcoMoon.io -->
<svg version="1.1" xmlns="http://www.w3.org/2000/svg" width="1024" height="1024" viewBox="0 0 1024 1024">
<title></title>
<g id="icomoon-ignore">
</g>
<path fill="#ffc900" d="M512 85.333c235.648 0 426.667 191.019 426.667 426.667s-191.019 426.667-426.667 426.667-426.667-191.019-426.667-426.667 191.019-426.667 426.667-426.667zM512 170.667c-188.513 0-341.333 152.82-341.333 341.333s152.82 341.333 341.333 341.333v0c188.513 0 341.333-152.82 341.333-341.333s-152.82-341.333-341.333-341.333v0zM512 469.333c23.564 0 42.667 19.103 42.667 42.667v0 170.667c0 23.564-19.103 42.667-42.667 42.667s-42.667-19.103-42.667-42.667v0-170.667c0-23.564 19.103-42.667 42.667-42.667v0zM512 298.667c23.564 0 42.667 19.103 42.667 42.667s-19.103 42.667-42.667 42.667v0c-23.564 0-42.667-19.103-42.667-42.667s19.103-42.667 42.667-42.667v0z"></path>
</svg>
