<!-- Generated by IcoMoon.io -->
<svg version="1.1" xmlns="http://www.w3.org/2000/svg" width="1024" height="1024" viewBox="0 0 1024 1024">
<title></title>
<g id="icomoon-ignore">
</g>
<path fill="#000" d="M224 170.667h576c0.003 0 0.006 0 0.009 0 73.822 0 134.17 57.686 138.427 130.44l0.018 0.376 0.213 7.851v405.333c0 0.003 0 0.006 0 0.009 0 73.822-57.686 134.17-130.44 138.427l-0.376 0.018-7.851 0.213h-576c-0.003 0-0.006 0-0.009 0-73.822 0-134.17-57.686-138.427-130.44l-0.018-0.376-0.213-7.851v-405.333c0-0.003 0-0.006 0-0.009 0-73.822 57.686-134.17 130.44-138.427l0.376-0.018 7.851-0.213zM874.667 399.915l-347.733 183.040c-4.331 2.334-9.479 3.705-14.947 3.705-3.866 0-7.572-0.686-11.003-1.942l0.222 0.071-4.096-1.792-347.776-183.040v314.709c0.001 39.073 30.016 71.136 68.247 74.392l0.276 0.019 6.144 0.256h576c39.087-0.003 71.157-30.040 74.392-68.291l0.019-0.274 0.256-6.101v-314.752zM800 234.667h-576c-39.073 0.001-71.136 30.016-74.392 68.247l-0.019 0.276-0.256 6.144v18.304l362.667 190.848 362.667-190.891v-18.261c-0.003-39.087-30.040-71.157-68.291-74.392l-0.274-0.019-6.101-0.256z"></path>
</svg>
