<!-- Generated by IcoMoon.io -->
<svg version="1.1" xmlns="http://www.w3.org/2000/svg" width="1024" height="1024" viewBox="0 0 1024 1024">
<title></title>
<g id="icomoon-ignore">
</g>
<path fill="#000" d="M305.32 103.334l49.792-15.061c10.132-3.167 21.782-4.991 33.858-4.991 47.381 0 88.203 28.085 106.727 68.516l0.3 0.732 38.443 85.589c6.515 14.138 10.315 30.678 10.315 48.106 0 33.825-14.313 64.308-37.213 85.721l-0.067 0.062-63.787 59.477c-1.807 1.687-3.025 3.985-3.323 6.564l-0.005 0.050c-1.877 16.939 9.6 49.92 36.096 95.787 19.2 33.323 36.651 56.704 51.456 69.845 10.325 9.173 16.043 11.136 18.432 10.411l85.76-26.197c10.277-3.262 22.096-5.142 34.355-5.142 39.009 0 73.572 19.037 94.906 48.326l0.233 0.336 54.613 75.733c13.88 19.034 22.206 42.888 22.206 68.687 0 33.51-14.048 63.74-36.576 85.12l-0.052 0.049-37.845 35.84c-28.611 27.137-67.364 43.825-110.016 43.825-15.318 0-30.132-2.152-44.159-6.171l1.129 0.277c-117.504-32.811-222.848-131.968-317.227-295.424-94.464-163.712-127.659-304.683-97.024-422.997 14.393-54.29 55.23-96.581 107.538-112.765l1.134-0.302zM323.795 164.56c-32.116 9.884-56.656 35.3-65.129 67.256l-0.151 0.67c-25.685 99.456 3.712 224.427 90.581 374.912 86.784 150.272 180.181 238.165 279.040 265.771 7.73 2.24 16.61 3.529 25.79 3.529 25.6 0 48.86-10.020 66.071-26.353l-0.042 0.040 37.803-35.797c10.268-9.741 16.656-23.485 16.656-38.72 0-11.722-3.782-22.561-10.192-31.363l0.106 0.153-54.613-75.733c-9.802-13.476-25.518-22.137-43.258-22.137-5.575 0-10.949 0.855-16 2.442l0.378-0.102-85.973 26.283c-49.92 14.891-95.189-25.301-143.829-109.525-32.811-56.747-48.085-100.693-44.245-134.912 1.963-17.707 10.24-34.133 23.253-46.293l63.787-59.477c10.432-9.76 16.932-23.611 16.932-38.98 0-7.92-1.726-15.437-4.824-22.195l0.137 0.332-38.443-85.589c-8.56-18.7-27.11-31.457-48.64-31.457-5.494 0-10.793 0.831-15.78 2.373l0.378-0.101-49.792 14.976z"></path>
</svg>
