<!-- Generated by IcoMoon.io -->
<svg version="1.1" xmlns="http://www.w3.org/2000/svg" width="1024" height="1024" viewBox="0 0 1024 1024">
<title></title>
<g id="icomoon-ignore">
</g>
<path fill="#000" d="M362.667 298.698c0-47.128 38.205-85.333 85.333-85.333v0h152.832c17.661 0.004 33.65 7.161 45.227 18.731l124.522 124.458c11.586 11.582 18.752 27.585 18.752 45.262 0 0.003 0 0.005 0 0.008v0 323.371c0 47.128-38.205 85.333-85.333 85.333v0h-142.251c17.473-12.417 32.598-26.478 45.702-42.276l0.314-0.39h96.235c23.564 0 42.667-19.103 42.667-42.667v0-298.453h-106.688c-35.346 0-64-28.654-64-64v0-106.709h-127.979c-23.564 0-42.667 19.103-42.667 42.667v0 86.187c-15.841 1.458-30.349 4.247-44.319 8.304l1.652-0.411v-94.080zM618.646 264.991v97.749c0 11.782 9.551 21.333 21.333 21.333v0h97.771l-119.083-119.083zM618.667 618.634c0 106.039-85.961 192-192 192s-192-85.961-192-192v0c0-106.039 85.961-192 192-192s192 85.961 192 192v0zM411.563 719.050l0.107 0.107c3.823 3.775 9.070 6.115 14.864 6.144h0.262c5.844-0.038 11.124-2.419 14.955-6.251l85.333-85.333c3.705-3.832 5.989-9.060 5.989-14.821 0-11.782-9.551-21.333-21.333-21.333-5.761 0-10.988 2.283-14.827 5.994l-48.911 48.89v-119.168c0-11.782-9.551-21.333-21.333-21.333s-21.333 9.551-21.333 21.333v0 119.168l-48.917-48.917c-3.832-3.705-9.060-5.989-14.821-5.989-11.782 0-21.333 9.551-21.333 21.333 0 5.761 2.283 10.988 5.994 14.827l85.327 85.327z"></path>
</svg>
