<!-- Generated by IcoMoon.io -->
<svg version="1.1" xmlns="http://www.w3.org/2000/svg" width="1024" height="1024" viewBox="0 0 1024 1024">
<title></title>
<g id="icomoon-ignore">
</g>
<path fill="#000" d="M405.334 384.192l-0.043 170.325c0 0.003 0 0.007 0 0.010 0 11.782 9.551 21.333 21.333 21.333 4.404 0 8.497-1.335 11.895-3.621l-0.076 0.048 127.915-85.163c5.769-3.879 9.514-10.382 9.514-17.76s-3.745-13.881-9.438-17.712l-0.076-0.048-127.872-85.184c-3.327-2.247-7.427-3.587-11.84-3.587-11.782 0-21.333 9.551-21.333 21.333 0 0.009 0 0.017 0 0.026v-0.001zM234.667 352c0-53.019 42.981-96 96-96v0h277.333c53.019 0 96 42.981 96 96v0 234.667c0 53.019-42.981 96-96 96v0h-277.333c-53.019 0-96-42.981-96-96v0-234.667zM330.667 298.666c-29.455 0-53.333 23.878-53.333 53.333v0 234.667c0 29.455 23.878 53.333 53.333 53.333v0h277.333c29.455 0 53.333-23.878 53.333-53.333v0-234.667c0-29.455-23.878-53.333-53.333-53.333v0h-277.333zM320 725.333c19.637 26.022 50.504 42.667 85.259 42.667 0.026 0 0.052 0 0.079 0h223.996c88.366 0 160-71.634 160-160v0-181.333c0-0.022 0-0.048 0-0.075 0-34.754-16.645-65.621-42.397-85.064l-0.269-0.195v266.667c0 64.801-52.532 117.333-117.333 117.333v0h-309.333z"></path>
</svg>
